# xmcd
# 
# Track frame offsets:
#     150
#     10673
#     31612
#     47929
# 
# Disc length: 917
# 
# Revision: 0
# Processed by: cddbd v1.5.2PL0 Copyright (c) Steve Scherf et al.
# Submitted via: fre:ac v1.0.17
# 
DISCID=22039304
DTITLE=Strike - Testoasteron
DYEAR=0
DGENRE=
TTITLE0=TV Stories
TTITLE1=I Don't Need The Pain
TTITLE2=Here I Wait
TTITLE3=Don't Kill Me
EXTD=
EXTT0=
EXTT1=
EXTT2=
EXTT3=
PLAYORDER=
